<?xml version="1.0" encoding="UTF-8" standalone="no"?>
<!-- Created with Inkscape (http://www.inkscape.org/) -->

<svg
   xmlns:dc="http://purl.org/dc/elements/1.1/"
   xmlns:cc="http://creativecommons.org/ns#"
   xmlns:rdf="http://www.w3.org/1999/02/22-rdf-syntax-ns#"
   xmlns:svg="http://www.w3.org/2000/svg"
   xmlns="http://www.w3.org/2000/svg"
   xmlns:sodipodi="http://sodipodi.sourceforge.net/DTD/sodipodi-0.dtd"
   xmlns:inkscape="http://www.inkscape.org/namespaces/inkscape"
   version="1.1"
   id="svg3837"
   xml:space="preserve"
   width="1365.3333"
   height="1365.3333"
   viewBox="0 0 1365.3333 1365.3333"
   sodipodi:docname="IconBeta.ai.svg"
   inkscape:version="0.92.5 (2060ec1f9f, 2020-04-08)"><metadata
     id="metadata3843"><rdf:RDF><cc:Work
         rdf:about=""><dc:format>image/svg+xml</dc:format><dc:type
           rdf:resource="http://purl.org/dc/dcmitype/StillImage" /><dc:title /></cc:Work></rdf:RDF></metadata><defs
     id="defs3841"><clipPath
       clipPathUnits="userSpaceOnUse"
       id="clipPath3853"><path
         d="M 0,1024 H 1024 V 0 H 0 Z"
         id="path3851"
         inkscape:connector-curvature="0" /></clipPath><clipPath
       clipPathUnits="userSpaceOnUse"
       id="clipPath3861"><path
         d="M 0,1024 H 1024 V 0 H 0 Z"
         id="path3859"
         inkscape:connector-curvature="0" /></clipPath><clipPath
       clipPathUnits="userSpaceOnUse"
       id="clipPath3877"><path
         d="m 886.565,462.846 -0.314,-2.372 -0.329,-2.371 -0.343,-2.37 -0.359,-2.365 -0.373,-2.364 -0.387,-2.363 -0.402,-2.358 -0.417,-2.358 -0.433,-2.353 -0.446,-2.351 -0.46,-2.349 -0.477,-2.346 -0.489,-2.341 -0.505,-2.339 -0.519,-2.336 -0.535,-2.332 -0.548,-2.33 -0.562,-2.325 -0.578,-2.321 -0.592,-2.32 -0.605,-2.314 -0.621,-2.31 -0.635,-2.307 -0.65,-2.303 -0.664,-2.296 -0.677,-2.295 -0.693,-2.29 -0.706,-2.285 -0.722,-2.282 -0.734,-2.275 -0.75,-2.273 -0.762,-2.265 -0.778,-2.263 -0.791,-2.256 -0.807,-2.252 -0.819,-2.247 -0.833,-2.241 -0.847,-2.236 -0.862,-2.231 -0.875,-2.224 -0.889,-2.22 -0.902,-2.214 -0.918,-2.209 -0.93,-2.202 -0.943,-2.196 -0.958,-2.19 -0.972,-2.185 -0.985,-2.176 -0.998,-2.172 -1.011,-2.166 -1.027,-2.158 -1.039,-2.154 -1.051,-2.144 -1.067,-2.14 -1.079,-2.132 -1.091,-2.126 -1.106,-2.118 -1.118,-2.11 -1.132,-2.105 -1.144,-2.097 -1.159,-2.089 -1.171,-2.082 -1.183,-2.075 -1.197,-2.068 -1.21,-2.059 -1.221,-2.052 -1.235,-2.045 -1.248,-2.035 -1.261,-2.03 -1.274,-2.02 -1.285,-2.012 -1.299,-2.004 -1.309,-1.995 -1.323,-1.988 -1.335,-1.979 -1.348,-1.97 -1.361,-1.962 -1.372,-1.953 -1.384,-1.946 -1.397,-1.934 -1.408,-1.928 -1.421,-1.918 -1.43,-1.908 -1.446,-1.9 -1.456,-1.89 -1.467,-1.882 -1.48,-1.872 -1.49,-1.862 -1.502,-1.852 -1.516,-1.844 -1.524,-1.834 -1.536,-1.824 -1.549,-1.815 -1.561,-1.804 -1.57,-1.794 -1.582,-1.784 -1.592,-1.776 -1.604,-1.764 -1.615,-1.754 -1.626,-1.744 -1.637,-1.734 -1.648,-1.722 -1.658,-1.714 -1.669,-1.702 -1.68,-1.691 -1.689,-1.681 -1.7,-1.669 -1.711,-1.659 -1.721,-1.649 -1.73,-1.639 -1.743,-1.626 -1.751,-1.615 -1.761,-1.605 -1.772,-1.592 -1.782,-1.582 -1.791,-1.57 -1.8,-1.56 -1.81,-1.548 -1.82,-1.535 -1.831,-1.526 -1.839,-1.512 -1.848,-1.502 -1.858,-1.489 -1.867,-1.479 -1.877,-1.465 -1.885,-1.455 -1.894,-1.441 -1.903,-1.43 -1.913,-1.418 -1.92,-1.406 -1.93,-1.393 -1.939,-1.381 -1.946,-1.369 -1.957,-1.357 -1.964,-1.344 -1.971,-1.332 -1.981,-1.319 -1.988,-1.307 -1.997,-1.293 -2.004,-1.281 -2.014,-1.269 -2.019,-1.255 -2.03,-1.245 -2.035,-1.23 -2.044,-1.216 -2.052,-1.205 -2.057,-1.191 -2.068,-1.178 -2.072,-1.164 -2.082,-1.152 -2.086,-1.139 -2.095,-1.124 -2.101,-1.113 -2.109,-1.099 -2.117,-1.085 -2.121,-1.071 -2.13,-1.06 -2.133,-1.045 -2.142,-1.03 -2.148,-1.018 -2.156,-1.006 -2.161,-0.99 -2.165,-0.976 -2.174,-0.962 -2.178,-0.95 -2.186,-0.935 -2.189,-0.921 -2.196,-0.909 -2.203,-0.894 -2.207,-0.88 -2.213,-0.865 -2.219,-0.85 -2.222,-0.839 -2.228,-0.822 -2.234,-0.81 -2.239,-0.796 -2.244,-0.781 -2.247,-0.767 -2.253,-0.753 -2.257,-0.736 -2.263,-0.725 -2.266,-0.71 -2.272,-0.695 -2.276,-0.681 -2.278,-0.666 -2.285,-0.652 -2.286,-0.637 -2.292,-0.622 -2.296,-0.608 -2.299,-0.594 -2.305,-0.58 -2.304,-0.564 -2.311,-0.55 -2.313,-0.535 -2.316,-0.521 -2.319,-0.505 -2.323,-0.492 -0.286,-0.06 -51.375,51.821 0.438,642.661 51.36,51.805 0.373,-0.076 2.321,-0.494 2.319,-0.51 2.316,-0.523 2.313,-0.539 2.309,-0.552 2.305,-0.569 2.303,-0.583 2.298,-0.597 2.294,-0.611 2.291,-0.626 2.287,-0.64 2.283,-0.656 2.278,-0.668 2.274,-0.684 2.271,-0.699 2.266,-0.713 2.261,-0.727 2.257,-0.74 2.251,-0.756 2.249,-0.77 2.241,-0.784 2.237,-0.799 2.233,-0.811 2.228,-0.828 2.221,-0.839 2.217,-0.856 2.211,-0.869 2.207,-0.883 2.2,-0.897 2.196,-0.91 2.188,-0.924 2.183,-0.938 2.179,-0.953 2.171,-0.965 2.165,-0.98 2.16,-0.994 2.153,-1.007 2.147,-1.021 2.14,-1.033 2.134,-1.049 2.126,-1.062 2.121,-1.075 2.113,-1.087 2.108,-1.102 2.1,-1.115 2.093,-1.129 2.087,-1.142 2.078,-1.154 2.073,-1.167 2.064,-1.182 2.058,-1.193 2.049,-1.207 2.04,-1.22 2.037,-1.234 2.026,-1.246 2.018,-1.257 2.011,-1.272 2.003,-1.283 1.995,-1.297 1.988,-1.311 1.977,-1.321 1.971,-1.335 1.963,-1.346 1.953,-1.36 1.945,-1.371 1.937,-1.385 1.927,-1.396 1.918,-1.408 1.911,-1.42 1.902,-1.434 1.892,-1.445 1.884,-1.456 1.873,-1.469 1.867,-1.48 1.856,-1.492 1.845,-1.504 1.839,-1.514 1.826,-1.528 1.819,-1.539 1.807,-1.549 1.8,-1.563 1.789,-1.572 1.778,-1.584 1.77,-1.596 1.76,-1.607 1.748,-1.618 1.74,-1.629 1.728,-1.641 1.72,-1.649 1.708,-1.663 1.698,-1.672 1.687,-1.683 1.677,-1.694 1.667,-1.704 1.656,-1.715 1.644,-1.726 1.636,-1.735 1.622,-1.747 1.613,-1.756 1.601,-1.767 1.592,-1.777 1.579,-1.786 1.567,-1.796 1.558,-1.807 1.547,-1.817 1.534,-1.826 1.522,-1.837 1.512,-1.845 1.5,-1.854 1.488,-1.865 1.477,-1.873 1.466,-1.885 1.452,-1.891 1.442,-1.903 1.429,-1.91 1.418,-1.921 1.407,-1.928 1.393,-1.938 1.38,-1.946 1.371,-1.956 1.358,-1.963 1.345,-1.973 1.332,-1.98 1.319,-1.989 1.309,-1.998 1.296,-2.005 1.283,-2.015 1.269,-2.022 1.258,-2.029 1.245,-2.039 1.233,-2.045 1.218,-2.055 1.207,-2.061 1.195,-2.069 1.18,-2.076 1.168,-2.084 1.156,-2.091 1.141,-2.099 1.129,-2.106 1.115,-2.113 1.104,-2.118 1.089,-2.128 1.075,-2.134 1.063,-2.141 1.049,-2.146 1.036,-2.153 1.023,-2.162 1.009,-2.165 0.995,-2.174 0.983,-2.179 0.969,-2.186 0.954,-2.191 0.941,-2.198 0.928,-2.204 0.912,-2.208 0.901,-2.215 0.886,-2.222 0.871,-2.226 0.858,-2.232 0.845,-2.236 0.831,-2.244 0.815,-2.247 0.804,-2.253 0.788,-2.258 0.774,-2.262 0.761,-2.27 0.745,-2.271 0.732,-2.278 0.717,-2.282 0.703,-2.286 0.69,-2.29 0.675,-2.296 0.66,-2.299 0.646,-2.302 0.632,-2.309 0.618,-2.31 0.604,-2.315 0.589,-2.32 0.573,-2.323 0.561,-2.327 0.544,-2.329 0.531,-2.332 0.515,-2.338 0.502,-2.34 0.488,-2.342 0.471,-2.345 0.459,-2.35 0.443,-2.352 0.427,-2.355 0.414,-2.356 0.401,-2.36 0.384,-2.363 0.369,-2.364 0.355,-2.367 0.34,-2.369 0.325,-2.371 0.31,-2.374 0.297,-2.375 0.281,-2.377 0.267,-2.379 0.251,-2.38 0.236,-2.382 0.223,-2.383 0.206,-2.385 0.192,-2.387 0.177,-2.386 0.163,-2.388 0.146,-2.39 0.133,-2.389 0.118,-2.392 0.103,-2.391 0.088,-2.393 0.072,-2.391 0.058,-2.395 0.043,-2.393 0.028,-2.392 0.015,-2.395 -0.002,-2.395 -0.018,-2.393 -0.031,-2.394 -0.046,-2.393 -0.061,-2.392 -0.076,-2.394 -0.093,-2.39 -0.105,-2.392 -0.121,-2.392 -0.135,-2.389 -0.151,-2.39 -0.165,-2.388 -0.181,-2.386 -0.195,-2.385 -0.21,-2.386 -0.226,-2.383 -0.239,-2.382 -0.254,-2.379 -0.271,-2.377 -0.284,-2.377 z"
         id="path3875"
         inkscape:connector-curvature="0" /></clipPath><linearGradient
       x1="0"
       y1="0"
       x2="1"
       y2="0"
       gradientUnits="userSpaceOnUse"
       gradientTransform="matrix(416.81436,416.81436,416.81436,-416.81436,423.40573,303.50906)"
       spreadMethod="pad"
       id="linearGradient3893"><stop
         style="stop-opacity:1;stop-color:#1e8fd4"
         offset="0"
         id="stop3883" /><stop
         style="stop-opacity:1;stop-color:#1e8fd4"
         offset="0.08807276"
         id="stop3885" /><stop
         style="stop-opacity:1;stop-color:#924395"
         offset="0.349238"
         id="stop3887" /><stop
         style="stop-opacity:1;stop-color:#d03f57"
         offset="0.676429"
         id="stop3889" /><stop
         style="stop-opacity:1;stop-color:#f17934"
         offset="1"
         id="stop3891" /></linearGradient><clipPath
       clipPathUnits="userSpaceOnUse"
       id="clipPath3903"><path
         d="m 134.316,506.322 -0.028,2.395 -0.015,2.393 0.004,2.394 0.015,2.393 0.032,2.395 0.047,2.393 0.062,2.393 0.074,2.393 0.092,2.391 0.107,2.393 0.12,2.39 0.135,2.389 0.151,2.39 0.165,2.388 0.181,2.386 0.195,2.387 0.21,2.383 0.225,2.384 0.24,2.381 0.255,2.381 0.269,2.378 0.285,2.376 0.298,2.375 0.315,2.372 0.328,2.371 0.343,2.369 0.359,2.366 0.373,2.364 0.388,2.363 0.401,2.36 0.418,2.356 0.432,2.353 0.446,2.352 0.46,2.348 0.477,2.345 0.491,2.342 0.503,2.339 0.519,2.336 0.535,2.333 0.548,2.329 0.563,2.324 0.577,2.324 0.592,2.318 0.607,2.314 0.619,2.31 0.635,2.307 0.65,2.302 0.663,2.298 0.678,2.294 0.693,2.29 0.706,2.285 0.721,2.282 0.735,2.275 0.75,2.272 0.764,2.268 0.776,2.261 0.792,2.256 0.805,2.252 0.82,2.246 0.833,2.242 0.847,2.236 0.862,2.231 0.874,2.224 0.89,2.221 0.903,2.213 0.916,2.208 0.931,2.203 0.945,2.196 0.957,2.189 0.97,2.185 0.987,2.179 0.997,2.171 1.013,2.166 1.026,2.157 1.038,2.154 1.052,2.145 1.066,2.14 1.078,2.131 1.093,2.126 1.105,2.118 1.119,2.111 1.131,2.105 1.145,2.096 1.157,2.09 1.172,2.083 1.183,2.073 1.197,2.068 1.21,2.059 1.223,2.053 1.233,2.044 1.248,2.036 1.261,2.029 1.274,2.019 1.286,2.012 1.297,2.004 1.31,1.996 1.324,1.988 1.336,1.978 1.346,1.971 1.361,1.963 1.372,1.953 1.385,1.945 1.395,1.936 1.409,1.925 1.421,1.918 1.432,1.909 1.443,1.899 1.456,1.891 1.468,1.882 1.48,1.872 1.491,1.861 1.502,1.855 1.514,1.843 1.526,1.833 1.536,1.824 1.55,1.815 1.559,1.803 1.57,1.796 1.582,1.783 1.592,1.776 1.605,1.764 1.616,1.754 1.626,1.744 1.635,1.734 1.648,1.723 1.658,1.713 1.668,1.702 1.681,1.691 1.689,1.682 1.701,1.669 1.71,1.659 1.721,1.65 1.731,1.636 1.742,1.626 1.751,1.617 1.761,1.604 1.772,1.592 1.781,1.582 1.791,1.572 1.801,1.557 1.81,1.549 1.822,1.537 1.829,1.524 1.839,1.513 1.848,1.501 1.859,1.489 1.866,1.478 1.877,1.466 1.886,1.455 1.893,1.441 1.903,1.431 1.914,1.416 1.919,1.407 1.932,1.392 1.937,1.382 1.946,1.37 1.956,1.356 1.965,1.344 1.972,1.332 1.98,1.32 1.99,1.306 1.995,1.293 2.004,1.281 2.013,1.269 2.022,1.256 2.028,1.243 2.035,1.23 2.044,1.217 2.051,1.205 2.06,1.191 2.066,1.178 2.073,1.165 2.08,1.152 2.088,1.139 2.094,1.125 2.103,1.112 2.109,1.098 2.115,1.085 2.121,1.073 2.129,1.058 2.136,1.045 2.142,1.031 2.147,1.019 2.155,1.003 2.16,0.991 2.168,0.976 2.172,0.963 2.178,0.949 2.185,0.935 2.19,0.921 2.198,0.908 2.2,0.895 2.207,0.879 2.214,0.866 2.218,0.851 2.223,0.838 2.228,0.824 2.234,0.808 2.239,0.796 2.244,0.781 2.248,0.767 2.252,0.753 2.257,0.738 2.263,0.723 2.268,0.709 2.27,0.696 2.276,0.681 2.278,0.665 2.285,0.653 2.287,0.637 2.293,0.622 2.294,0.609 2.299,0.593 2.304,0.579 2.306,0.566 2.31,0.549 2.313,0.535 2.317,0.521 2.318,0.507 0.623,0.13 51.035,-51.475 -0.476,-642.42 -51.088,-51.529 -0.602,0.129 -2.32,0.507 -2.315,0.525 -2.312,0.538 -2.31,0.554 -2.305,0.567 -2.301,0.583 -2.299,0.597 -2.295,0.611 -2.291,0.626 -2.286,0.641 -2.284,0.654 -2.278,0.671 -2.274,0.682 -2.271,0.699 -2.266,0.713 -2.261,0.727 -2.256,0.741 -2.252,0.756 -2.247,0.769 -2.243,0.784 -2.238,0.799 -2.232,0.811 -2.228,0.827 -2.221,0.842 -2.217,0.855 -2.211,0.868 -2.206,0.883 -2.201,0.897 -2.196,0.909 -2.188,0.925 -2.183,0.939 -2.179,0.952 -2.17,0.966 -2.166,0.981 -2.16,0.992 -2.153,1.008 -2.147,1.02 -2.14,1.035 -2.134,1.048 -2.126,1.061 -2.122,1.074 -2.113,1.088 -2.107,1.103 -2.101,1.114 -2.093,1.129 -2.086,1.141 -2.078,1.155 -2.073,1.167 -2.064,1.181 -2.056,1.195 -2.05,1.206 -2.042,1.221 -2.036,1.232 -2.025,1.247 -2.019,1.258 -2.012,1.271 -2.002,1.284 -1.994,1.296 -1.988,1.311 -1.979,1.32 -1.97,1.336 -1.961,1.347 -1.955,1.358 -1.945,1.372 -1.936,1.385 -1.929,1.396 -1.918,1.409 -1.91,1.421 -1.902,1.431 -1.892,1.446 -1.884,1.456 -1.874,1.468 -1.866,1.48 -1.854,1.493 -1.847,1.504 -1.837,1.515 -1.828,1.527 -1.818,1.538 -1.808,1.552 -1.799,1.56 -1.79,1.575 -1.778,1.583 -1.77,1.595 -1.76,1.607 -1.748,1.618 -1.74,1.629 -1.728,1.64 -1.72,1.65 -1.708,1.663 -1.698,1.672 -1.688,1.682 -1.676,1.695 -1.667,1.704 -1.655,1.717 -1.645,1.723 -1.635,1.737 -1.623,1.746 -1.614,1.756 -1.6,1.767 -1.591,1.777 -1.58,1.787 -1.567,1.796 -1.558,1.806 -1.545,1.817 -1.535,1.826 -1.523,1.837 -1.512,1.845 -1.5,1.855 -1.488,1.863 -1.477,1.876 -1.465,1.883 -1.453,1.892 -1.442,1.902 -1.429,1.911 -1.418,1.92 -1.405,1.928 -1.394,1.938 -1.382,1.947 -1.37,1.954 -1.356,1.964 -1.345,1.973 -1.334,1.98 -1.319,1.99 -1.309,1.997 -1.296,2.006 -1.282,2.014 -1.271,2.022 -1.257,2.031 -1.245,2.037 -1.232,2.047 -1.22,2.053 -1.206,2.06 -1.195,2.07 -1.181,2.077 -1.167,2.083 -1.156,2.091 -1.142,2.099 -1.129,2.106 -1.114,2.113 -1.104,2.12 -1.089,2.126 -1.075,2.134 -1.062,2.141 -1.05,2.146 -1.037,2.155 -1.022,2.159 -1.009,2.167 -0.995,2.173 -0.983,2.18 -0.967,2.185 -0.956,2.191 -0.94,2.198 -0.927,2.203 -0.915,2.209 -0.899,2.217 -0.887,2.22 -0.872,2.226 -0.857,2.233 -0.845,2.237 -0.83,2.241 -0.817,2.249 -0.801,2.251 -0.789,2.259 -0.775,2.264 -0.76,2.267 -0.746,2.273 -0.732,2.276 -0.717,2.282 -0.704,2.287 -0.689,2.292 -0.675,2.293 -0.66,2.299 -0.646,2.305 -0.633,2.307 -0.617,2.31 -0.603,2.317 -0.59,2.318 -0.573,2.323 -0.561,2.326 -0.544,2.329 -0.53,2.334 -0.516,2.336 -0.502,2.341 -0.488,2.342 -0.471,2.347 -0.457,2.348 -0.445,2.352 -0.427,2.354 -0.414,2.357 -0.399,2.361 -0.385,2.361 -0.369,2.365 -0.356,2.367 -0.34,2.369 -0.325,2.371 -0.31,2.373 -0.297,2.376 -0.281,2.377 -0.265,2.379 -0.253,2.38 -0.236,2.382 -0.221,2.383 -0.208,2.385 -0.192,2.386 -0.176,2.387 -0.162,2.388 -0.148,2.39 -0.133,2.39 -0.118,2.39 -0.101,2.392 -0.089,2.393 -0.073,2.391 -0.058,2.395 z"
         id="path3901"
         inkscape:connector-curvature="0" /></clipPath><linearGradient
       x1="0"
       y1="0"
       x2="1"
       y2="0"
       gradientUnits="userSpaceOnUse"
       gradientTransform="matrix(415.61163,415.61163,415.61163,-415.61163,183.1463,304.39902)"
       spreadMethod="pad"
       id="linearGradient3919"><stop
         style="stop-opacity:1;stop-color:#1e8fd4"
         offset="0"
         id="stop3909" /><stop
         style="stop-opacity:1;stop-color:#1e8fd4"
         offset="0.08807276"
         id="stop3911" /><stop
         style="stop-opacity:1;stop-color:#924395"
         offset="0.349238"
         id="stop3913" /><stop
         style="stop-opacity:1;stop-color:#d03f57"
         offset="0.676429"
         id="stop3915" /><stop
         style="stop-opacity:1;stop-color:#f17934"
         offset="1"
         id="stop3917" /></linearGradient></defs><sodipodi:namedview
     pagecolor="#ffffff"
     bordercolor="#666666"
     borderopacity="1"
     objecttolerance="10"
     gridtolerance="10"
     guidetolerance="10"
     inkscape:pageopacity="0"
     inkscape:pageshadow="2"
     inkscape:window-width="1920"
     inkscape:window-height="1016"
     id="namedview3839"
     showgrid="false"
     inkscape:zoom="0.26"
     inkscape:cx="2187.1822"
     inkscape:cy="734.84611"
     inkscape:window-x="0"
     inkscape:window-y="27"
     inkscape:window-maximized="1"
     inkscape:current-layer="g3845" /><g
     id="g3845"
     inkscape:groupmode="layer"
     inkscape:label="IconBeta"
     transform="matrix(1.3333333,0,0,-1.3333333,0,1365.3333)"><g
   id="g53"
   inkscape:export-xdpi="96"
   inkscape:export-ydpi="96"><g
   id="g3947"><g
     id="g3871"><g
       id="g3873"
       clip-path="url(#clipPath3877)"><g
         id="g3879"><g
           id="g3881"><path
             d="m 886.565,462.846 -0.314,-2.372 -0.329,-2.371 -0.343,-2.37 -0.359,-2.365 -0.373,-2.364 -0.387,-2.363 -0.402,-2.358 -0.417,-2.358 -0.433,-2.353 -0.446,-2.351 -0.46,-2.349 -0.477,-2.346 -0.489,-2.341 -0.505,-2.339 -0.519,-2.336 -0.535,-2.332 -0.548,-2.33 -0.562,-2.325 -0.578,-2.321 -0.592,-2.32 -0.605,-2.314 -0.621,-2.31 -0.635,-2.307 -0.65,-2.303 -0.664,-2.296 -0.677,-2.295 -0.693,-2.29 -0.706,-2.285 -0.722,-2.282 -0.734,-2.275 -0.75,-2.273 -0.762,-2.265 -0.778,-2.263 -0.791,-2.256 -0.807,-2.252 -0.819,-2.247 -0.833,-2.241 -0.847,-2.236 -0.862,-2.231 -0.875,-2.224 -0.889,-2.22 -0.902,-2.214 -0.918,-2.209 -0.93,-2.202 -0.943,-2.196 -0.958,-2.19 -0.972,-2.185 -0.985,-2.176 -0.998,-2.172 -1.011,-2.166 -1.027,-2.158 -1.039,-2.154 -1.051,-2.144 -1.067,-2.14 -1.079,-2.132 -1.091,-2.126 -1.106,-2.118 -1.118,-2.11 -1.132,-2.105 -1.144,-2.097 -1.159,-2.089 -1.171,-2.082 -1.183,-2.075 -1.197,-2.068 -1.21,-2.059 -1.221,-2.052 -1.235,-2.045 -1.248,-2.035 -1.261,-2.03 -1.274,-2.02 -1.285,-2.012 -1.299,-2.004 -1.309,-1.995 -1.323,-1.988 -1.335,-1.979 -1.348,-1.97 -1.361,-1.962 -1.372,-1.953 -1.384,-1.946 -1.397,-1.934 -1.408,-1.928 -1.421,-1.918 -1.43,-1.908 -1.446,-1.9 -1.456,-1.89 -1.467,-1.882 -1.48,-1.872 -1.49,-1.862 -1.502,-1.852 -1.516,-1.844 -1.524,-1.834 -1.536,-1.824 -1.549,-1.815 -1.561,-1.804 -1.57,-1.794 -1.582,-1.784 -1.592,-1.776 -1.604,-1.764 -1.615,-1.754 -1.626,-1.744 -1.637,-1.734 -1.648,-1.722 -1.658,-1.714 -1.669,-1.702 -1.68,-1.691 -1.689,-1.681 -1.7,-1.669 -1.711,-1.659 -1.721,-1.649 -1.73,-1.639 -1.743,-1.626 -1.751,-1.615 -1.761,-1.605 -1.772,-1.592 -1.782,-1.582 -1.791,-1.57 -1.8,-1.56 -1.81,-1.548 -1.82,-1.535 -1.831,-1.526 -1.839,-1.512 -1.848,-1.502 -1.858,-1.489 -1.867,-1.479 -1.877,-1.465 -1.885,-1.455 -1.894,-1.441 -1.903,-1.43 -1.913,-1.418 -1.92,-1.406 -1.93,-1.393 -1.939,-1.381 -1.946,-1.369 -1.957,-1.357 -1.964,-1.344 -1.971,-1.332 -1.981,-1.319 -1.988,-1.307 -1.997,-1.293 -2.004,-1.281 -2.014,-1.269 -2.019,-1.255 -2.03,-1.245 -2.035,-1.23 -2.044,-1.216 -2.052,-1.205 -2.057,-1.191 -2.068,-1.178 -2.072,-1.164 -2.082,-1.152 -2.086,-1.139 -2.095,-1.124 -2.101,-1.113 -2.109,-1.099 -2.117,-1.085 -2.121,-1.071 -2.13,-1.06 -2.133,-1.045 -2.142,-1.03 -2.148,-1.018 -2.156,-1.006 -2.161,-0.99 -2.165,-0.976 -2.174,-0.962 -2.178,-0.95 -2.186,-0.935 -2.189,-0.921 -2.196,-0.909 -2.203,-0.894 -2.207,-0.88 -2.213,-0.865 -2.219,-0.85 -2.222,-0.839 -2.228,-0.822 -2.234,-0.81 -2.239,-0.796 -2.244,-0.781 -2.247,-0.767 -2.253,-0.753 -2.257,-0.736 -2.263,-0.725 -2.266,-0.71 -2.272,-0.695 -2.276,-0.681 -2.278,-0.666 -2.285,-0.652 -2.286,-0.637 -2.292,-0.622 -2.296,-0.608 -2.299,-0.594 -2.305,-0.58 -2.304,-0.564 -2.311,-0.55 -2.313,-0.535 -2.316,-0.521 -2.319,-0.505 -2.323,-0.492 -0.286,-0.06 -51.375,51.821 0.438,642.661 51.36,51.805 0.373,-0.076 2.321,-0.494 2.319,-0.51 2.316,-0.523 2.313,-0.539 2.309,-0.552 2.305,-0.569 2.303,-0.583 2.298,-0.597 2.294,-0.611 2.291,-0.626 2.287,-0.64 2.283,-0.656 2.278,-0.668 2.274,-0.684 2.271,-0.699 2.266,-0.713 2.261,-0.727 2.257,-0.74 2.251,-0.756 2.249,-0.77 2.241,-0.784 2.237,-0.799 2.233,-0.811 2.228,-0.828 2.221,-0.839 2.217,-0.856 2.211,-0.869 2.207,-0.883 2.2,-0.897 2.196,-0.91 2.188,-0.924 2.183,-0.938 2.179,-0.953 2.171,-0.965 2.165,-0.98 2.16,-0.994 2.153,-1.007 2.147,-1.021 2.14,-1.033 2.134,-1.049 2.126,-1.062 2.121,-1.075 2.113,-1.087 2.108,-1.102 2.1,-1.115 2.093,-1.129 2.087,-1.142 2.078,-1.154 2.073,-1.167 2.064,-1.182 2.058,-1.193 2.049,-1.207 2.04,-1.22 2.037,-1.234 2.026,-1.246 2.018,-1.257 2.011,-1.272 2.003,-1.283 1.995,-1.297 1.988,-1.311 1.977,-1.321 1.971,-1.335 1.963,-1.346 1.953,-1.36 1.945,-1.371 1.937,-1.385 1.927,-1.396 1.918,-1.408 1.911,-1.42 1.902,-1.434 1.892,-1.445 1.884,-1.456 1.873,-1.469 1.867,-1.48 1.856,-1.492 1.845,-1.504 1.839,-1.514 1.826,-1.528 1.819,-1.539 1.807,-1.549 1.8,-1.563 1.789,-1.572 1.778,-1.584 1.77,-1.596 1.76,-1.607 1.748,-1.618 1.74,-1.629 1.728,-1.641 1.72,-1.649 1.708,-1.663 1.698,-1.672 1.687,-1.683 1.677,-1.694 1.667,-1.704 1.656,-1.715 1.644,-1.726 1.636,-1.735 1.622,-1.747 1.613,-1.756 1.601,-1.767 1.592,-1.777 1.579,-1.786 1.567,-1.796 1.558,-1.807 1.547,-1.817 1.534,-1.826 1.522,-1.837 1.512,-1.845 1.5,-1.854 1.488,-1.865 1.477,-1.873 1.466,-1.885 1.452,-1.891 1.442,-1.903 1.429,-1.91 1.418,-1.921 1.407,-1.928 1.393,-1.938 1.38,-1.946 1.371,-1.956 1.358,-1.963 1.345,-1.973 1.332,-1.98 1.319,-1.989 1.309,-1.998 1.296,-2.005 1.283,-2.015 1.269,-2.022 1.258,-2.029 1.245,-2.039 1.233,-2.045 1.218,-2.055 1.207,-2.061 1.195,-2.069 1.18,-2.076 1.168,-2.084 1.156,-2.091 1.141,-2.099 1.129,-2.106 1.115,-2.113 1.104,-2.118 1.089,-2.128 1.075,-2.134 1.063,-2.141 1.049,-2.146 1.036,-2.153 1.023,-2.162 1.009,-2.165 0.995,-2.174 0.983,-2.179 0.969,-2.186 0.954,-2.191 0.941,-2.198 0.928,-2.204 0.912,-2.208 0.901,-2.215 0.886,-2.222 0.871,-2.226 0.858,-2.232 0.845,-2.236 0.831,-2.244 0.815,-2.247 0.804,-2.253 0.788,-2.258 0.774,-2.262 0.761,-2.27 0.745,-2.271 0.732,-2.278 0.717,-2.282 0.703,-2.286 0.69,-2.29 0.675,-2.296 0.66,-2.299 0.646,-2.302 0.632,-2.309 0.618,-2.31 0.604,-2.315 0.589,-2.32 0.573,-2.323 0.561,-2.327 0.544,-2.329 0.531,-2.332 0.515,-2.338 0.502,-2.34 0.488,-2.342 0.471,-2.345 0.459,-2.35 0.443,-2.352 0.427,-2.355 0.414,-2.356 0.401,-2.36 0.384,-2.363 0.369,-2.364 0.355,-2.367 0.34,-2.369 0.325,-2.371 0.31,-2.374 0.297,-2.375 0.281,-2.377 0.267,-2.379 0.251,-2.38 0.236,-2.382 0.223,-2.383 0.206,-2.385 0.192,-2.387 0.177,-2.386 0.163,-2.388 0.146,-2.39 0.133,-2.389 0.118,-2.392 0.103,-2.391 0.088,-2.393 0.072,-2.391 0.058,-2.395 0.043,-2.393 0.028,-2.392 0.015,-2.395 -0.002,-2.395 -0.018,-2.393 -0.031,-2.394 -0.046,-2.393 -0.061,-2.392 -0.076,-2.394 -0.093,-2.39 -0.105,-2.392 -0.121,-2.392 -0.135,-2.389 -0.151,-2.39 -0.165,-2.388 -0.181,-2.386 -0.195,-2.385 -0.21,-2.386 -0.226,-2.383 -0.239,-2.382 -0.254,-2.379 -0.271,-2.377 -0.284,-2.377 z"
             style="fill:url(#linearGradient3893);stroke:none"
             id="path3895"
             inkscape:connector-curvature="0" /></g></g></g></g><g
     id="g3897"><g
       id="g3899"
       clip-path="url(#clipPath3903)"><g
         id="g3905"><g
           id="g3907"><path
             d="m 134.316,506.322 -0.028,2.395 -0.015,2.393 0.004,2.394 0.015,2.393 0.032,2.395 0.047,2.393 0.062,2.393 0.074,2.393 0.092,2.391 0.107,2.393 0.12,2.39 0.135,2.389 0.151,2.39 0.165,2.388 0.181,2.386 0.195,2.387 0.21,2.383 0.225,2.384 0.24,2.381 0.255,2.381 0.269,2.378 0.285,2.376 0.298,2.375 0.315,2.372 0.328,2.371 0.343,2.369 0.359,2.366 0.373,2.364 0.388,2.363 0.401,2.36 0.418,2.356 0.432,2.353 0.446,2.352 0.46,2.348 0.477,2.345 0.491,2.342 0.503,2.339 0.519,2.336 0.535,2.333 0.548,2.329 0.563,2.324 0.577,2.324 0.592,2.318 0.607,2.314 0.619,2.31 0.635,2.307 0.65,2.302 0.663,2.298 0.678,2.294 0.693,2.29 0.706,2.285 0.721,2.282 0.735,2.275 0.75,2.272 0.764,2.268 0.776,2.261 0.792,2.256 0.805,2.252 0.82,2.246 0.833,2.242 0.847,2.236 0.862,2.231 0.874,2.224 0.89,2.221 0.903,2.213 0.916,2.208 0.931,2.203 0.945,2.196 0.957,2.189 0.97,2.185 0.987,2.179 0.997,2.171 1.013,2.166 1.026,2.157 1.038,2.154 1.052,2.145 1.066,2.14 1.078,2.131 1.093,2.126 1.105,2.118 1.119,2.111 1.131,2.105 1.145,2.096 1.157,2.09 1.172,2.083 1.183,2.073 1.197,2.068 1.21,2.059 1.223,2.053 1.233,2.044 1.248,2.036 1.261,2.029 1.274,2.019 1.286,2.012 1.297,2.004 1.31,1.996 1.324,1.988 1.336,1.978 1.346,1.971 1.361,1.963 1.372,1.953 1.385,1.945 1.395,1.936 1.409,1.925 1.421,1.918 1.432,1.909 1.443,1.899 1.456,1.891 1.468,1.882 1.48,1.872 1.491,1.861 1.502,1.855 1.514,1.843 1.526,1.833 1.536,1.824 1.55,1.815 1.559,1.803 1.57,1.796 1.582,1.783 1.592,1.776 1.605,1.764 1.616,1.754 1.626,1.744 1.635,1.734 1.648,1.723 1.658,1.713 1.668,1.702 1.681,1.691 1.689,1.682 1.701,1.669 1.71,1.659 1.721,1.65 1.731,1.636 1.742,1.626 1.751,1.617 1.761,1.604 1.772,1.592 1.781,1.582 1.791,1.572 1.801,1.557 1.81,1.549 1.822,1.537 1.829,1.524 1.839,1.513 1.848,1.501 1.859,1.489 1.866,1.478 1.877,1.466 1.886,1.455 1.893,1.441 1.903,1.431 1.914,1.416 1.919,1.407 1.932,1.392 1.937,1.382 1.946,1.37 1.956,1.356 1.965,1.344 1.972,1.332 1.98,1.32 1.99,1.306 1.995,1.293 2.004,1.281 2.013,1.269 2.022,1.256 2.028,1.243 2.035,1.23 2.044,1.217 2.051,1.205 2.06,1.191 2.066,1.178 2.073,1.165 2.08,1.152 2.088,1.139 2.094,1.125 2.103,1.112 2.109,1.098 2.115,1.085 2.121,1.073 2.129,1.058 2.136,1.045 2.142,1.031 2.147,1.019 2.155,1.003 2.16,0.991 2.168,0.976 2.172,0.963 2.178,0.949 2.185,0.935 2.19,0.921 2.198,0.908 2.2,0.895 2.207,0.879 2.214,0.866 2.218,0.851 2.223,0.838 2.228,0.824 2.234,0.808 2.239,0.796 2.244,0.781 2.248,0.767 2.252,0.753 2.257,0.738 2.263,0.723 2.268,0.709 2.27,0.696 2.276,0.681 2.278,0.665 2.285,0.653 2.287,0.637 2.293,0.622 2.294,0.609 2.299,0.593 2.304,0.579 2.306,0.566 2.31,0.549 2.313,0.535 2.317,0.521 2.318,0.507 0.623,0.13 51.035,-51.475 -0.476,-642.42 -51.088,-51.529 -0.602,0.129 -2.32,0.507 -2.315,0.525 -2.312,0.538 -2.31,0.554 -2.305,0.567 -2.301,0.583 -2.299,0.597 -2.295,0.611 -2.291,0.626 -2.286,0.641 -2.284,0.654 -2.278,0.671 -2.274,0.682 -2.271,0.699 -2.266,0.713 -2.261,0.727 -2.256,0.741 -2.252,0.756 -2.247,0.769 -2.243,0.784 -2.238,0.799 -2.232,0.811 -2.228,0.827 -2.221,0.842 -2.217,0.855 -2.211,0.868 -2.206,0.883 -2.201,0.897 -2.196,0.909 -2.188,0.925 -2.183,0.939 -2.179,0.952 -2.17,0.966 -2.166,0.981 -2.16,0.992 -2.153,1.008 -2.147,1.02 -2.14,1.035 -2.134,1.048 -2.126,1.061 -2.122,1.074 -2.113,1.088 -2.107,1.103 -2.101,1.114 -2.093,1.129 -2.086,1.141 -2.078,1.155 -2.073,1.167 -2.064,1.181 -2.056,1.195 -2.05,1.206 -2.042,1.221 -2.036,1.232 -2.025,1.247 -2.019,1.258 -2.012,1.271 -2.002,1.284 -1.994,1.296 -1.988,1.311 -1.979,1.32 -1.97,1.336 -1.961,1.347 -1.955,1.358 -1.945,1.372 -1.936,1.385 -1.929,1.396 -1.918,1.409 -1.91,1.421 -1.902,1.431 -1.892,1.446 -1.884,1.456 -1.874,1.468 -1.866,1.48 -1.854,1.493 -1.847,1.504 -1.837,1.515 -1.828,1.527 -1.818,1.538 -1.808,1.552 -1.799,1.56 -1.79,1.575 -1.778,1.583 -1.77,1.595 -1.76,1.607 -1.748,1.618 -1.74,1.629 -1.728,1.64 -1.72,1.65 -1.708,1.663 -1.698,1.672 -1.688,1.682 -1.676,1.695 -1.667,1.704 -1.655,1.717 -1.645,1.723 -1.635,1.737 -1.623,1.746 -1.614,1.756 -1.6,1.767 -1.591,1.777 -1.58,1.787 -1.567,1.796 -1.558,1.806 -1.545,1.817 -1.535,1.826 -1.523,1.837 -1.512,1.845 -1.5,1.855 -1.488,1.863 -1.477,1.876 -1.465,1.883 -1.453,1.892 -1.442,1.902 -1.429,1.911 -1.418,1.92 -1.405,1.928 -1.394,1.938 -1.382,1.947 -1.37,1.954 -1.356,1.964 -1.345,1.973 -1.334,1.98 -1.319,1.99 -1.309,1.997 -1.296,2.006 -1.282,2.014 -1.271,2.022 -1.257,2.031 -1.245,2.037 -1.232,2.047 -1.22,2.053 -1.206,2.06 -1.195,2.07 -1.181,2.077 -1.167,2.083 -1.156,2.091 -1.142,2.099 -1.129,2.106 -1.114,2.113 -1.104,2.12 -1.089,2.126 -1.075,2.134 -1.062,2.141 -1.05,2.146 -1.037,2.155 -1.022,2.159 -1.009,2.167 -0.995,2.173 -0.983,2.18 -0.967,2.185 -0.956,2.191 -0.94,2.198 -0.927,2.203 -0.915,2.209 -0.899,2.217 -0.887,2.22 -0.872,2.226 -0.857,2.233 -0.845,2.237 -0.83,2.241 -0.817,2.249 -0.801,2.251 -0.789,2.259 -0.775,2.264 -0.76,2.267 -0.746,2.273 -0.732,2.276 -0.717,2.282 -0.704,2.287 -0.689,2.292 -0.675,2.293 -0.66,2.299 -0.646,2.305 -0.633,2.307 -0.617,2.31 -0.603,2.317 -0.59,2.318 -0.573,2.323 -0.561,2.326 -0.544,2.329 -0.53,2.334 -0.516,2.336 -0.502,2.341 -0.488,2.342 -0.471,2.347 -0.457,2.348 -0.445,2.352 -0.427,2.354 -0.414,2.357 -0.399,2.361 -0.385,2.361 -0.369,2.365 -0.356,2.367 -0.34,2.369 -0.325,2.371 -0.31,2.373 -0.297,2.376 -0.281,2.377 -0.265,2.379 -0.253,2.38 -0.236,2.382 -0.221,2.383 -0.208,2.385 -0.192,2.386 -0.176,2.387 -0.162,2.388 -0.148,2.39 -0.133,2.39 -0.118,2.39 -0.101,2.392 -0.089,2.393 -0.073,2.391 -0.058,2.395 z"
             style="fill:url(#linearGradient3919);stroke:none"
             id="path3921"
             inkscape:connector-curvature="0" /></g></g></g></g></g><text
   transform="scale(1,-1)"
   id="text3925"
   y="-283.54733"
   x="916.09637"
   style="font-style:normal;font-variant:normal;font-weight:300;font-stretch:normal;font-size:647.51141357px;line-height:1.25;font-family:'Arial Rounded MT';-inkscape-font-specification:'Arial Rounded MT, Light';font-variant-ligatures:normal;font-variant-caps:normal;font-variant-numeric:normal;font-feature-settings:normal;text-align:start;letter-spacing:0px;word-spacing:0px;writing-mode:lr-tb;text-anchor:start;fill:#4d4d4d;fill-opacity:1;stroke:none;stroke-width:16.1878624"
   xml:space="preserve"><tspan
     style="font-style:normal;font-variant:normal;font-weight:300;font-stretch:normal;font-size:647.51141357px;font-family:'Arial Rounded MT';-inkscape-font-specification:'Arial Rounded MT, Light';font-variant-ligatures:normal;font-variant-caps:normal;font-variant-numeric:normal;font-feature-settings:normal;text-align:start;writing-mode:lr-tb;text-anchor:start;fill:#4d4d4d;stroke-width:16.1878624"
     y="-283.54733"
     x="916.09637"
     id="tspan3923"
     sodipodi:role="line">SMARTIUM</tspan></text>

</g>
</g></svg>